<?xml version="1.0" encoding="utf-8"?>
<!-- Generator: Adobe Illustrator 16.0.0, SVG Export Plug-In . SVG Version: 6.00 Build 0)  -->
<!DOCTYPE svg PUBLIC "-//W3C//DTD SVG 1.1//EN" "http://www.w3.org/Graphics/SVG/1.1/DTD/svg11.dtd">
<svg version="1.1" id="Layer_1" xmlns="http://www.w3.org/2000/svg" xmlns:xlink="http://www.w3.org/1999/xlink" x="0px" y="0px"
	 width="36px" height="36px" viewBox="0 0 36 36" enable-background="new 0 0 36 36" xml:space="preserve">
<g>
	<g>
		<g>
			<g>
				
					<radialGradient id="SVGID_1_" cx="8.9067" cy="10.0586" r="8.053" gradientTransform="matrix(1 0 0 -1 0 19)" gradientUnits="userSpaceOnUse">
					<stop  offset="0" style="stop-color:#FFFFFF"/>
					<stop  offset="0.77" style="stop-color:#F1F2F2"/>
					<stop  offset="1" style="stop-color:#FFFFFF"/>
				</radialGradient>
				<path fill="url(#SVGID_1_)" d="M8.924,17.747l4.869-5.085l0.038-0.03c1.396-1.323,2.271-3.195,2.271-5.27
					c0-3.979-3.209-7.208-7.177-7.247V0.114c-0.018,0,0.056-0.001,0.038-0.001c-0.019,0-0.038,0.001-0.056,0.001
					c-0.016,0-0.036-0.001-0.054-0.001c-0.02,0,0.056,0.001,0.039,0.001v0.002c-3.971,0.039-7.18,3.268-7.18,7.246
					c0,2.075,0.874,3.947,2.271,5.27l0.037,0.03l4.87,5.085l0.016,0.022L8.924,17.747z"/>
				<circle fill="#E55329" cx="8.907" cy="7.312" r="5.913"/>
			</g>
		</g>
	</g>
	<g>
		<path fill="#FFFFFF" d="M4.184,7.473c0-0.226,0.075-0.417,0.225-0.566C4.562,6.754,4.75,6.678,4.976,6.678
			c0.057,0,0.116,0.007,0.179,0.02C5.218,6.71,5.282,6.729,5.347,6.753c0.064,0.025,0.118,0.061,0.159,0.109
			C5.549,6.91,5.57,6.965,5.57,7.027v0.176H5.307V7.115c0-0.056-0.035-0.093-0.102-0.125C5.136,6.961,5.062,6.947,4.983,6.947
			c-0.146,0-0.265,0.049-0.359,0.142C4.529,7.186,4.482,7.314,4.482,7.473c0,0.155,0.05,0.283,0.148,0.392
			c0.098,0.108,0.22,0.163,0.361,0.163c0.056,0,0.109-0.008,0.163-0.021c0.052-0.013,0.095-0.032,0.132-0.051
			c0.036-0.023,0.068-0.042,0.095-0.064c0.03-0.021,0.051-0.035,0.065-0.05L5.465,7.82l0.153,0.208
			C5.612,8.034,5.603,8.045,5.591,8.056C5.58,8.068,5.553,8.089,5.511,8.12c-0.04,0.03-0.084,0.059-0.129,0.083
			C5.337,8.228,5.281,8.25,5.207,8.268C5.136,8.287,5.062,8.296,4.986,8.296c-0.236,0-0.43-0.078-0.579-0.235
			C4.258,7.906,4.184,7.71,4.184,7.473z"/>
		<path fill="#FFFFFF" d="M5.679,7.476c0-0.225,0.078-0.414,0.232-0.565c0.155-0.156,0.348-0.232,0.576-0.232
			c0.231,0,0.422,0.076,0.576,0.232c0.155,0.152,0.234,0.341,0.234,0.565c0,0.231-0.079,0.425-0.234,0.583
			C6.91,8.218,6.719,8.296,6.488,8.296c-0.229,0-0.421-0.079-0.576-0.237C5.757,7.901,5.679,7.707,5.679,7.476z M5.979,7.476
			c0,0.156,0.049,0.287,0.148,0.392c0.098,0.105,0.218,0.16,0.36,0.16c0.143,0,0.264-0.055,0.362-0.16
			c0.099-0.105,0.147-0.236,0.147-0.392c0-0.147-0.048-0.272-0.147-0.374C6.752,6.999,6.63,6.947,6.488,6.947
			c-0.142,0-0.262,0.051-0.36,0.154C6.028,7.203,5.979,7.328,5.979,7.476z"/>
		<path fill="#FFFFFF" d="M7.508,7.713V6.998c0-0.032-0.015-0.047-0.047-0.047H7.365V6.705h0.282c0.053,0,0.091,0.013,0.115,0.037
			c0.024,0.023,0.035,0.061,0.035,0.112v0.848c0,0.102,0.029,0.183,0.088,0.239c0.058,0.057,0.139,0.086,0.238,0.086
			c0.1,0,0.179-0.03,0.239-0.086C8.421,7.885,8.45,7.804,8.45,7.7V6.854c0-0.051,0.013-0.089,0.036-0.112
			C8.51,6.718,8.547,6.705,8.599,6.705h0.283V6.95H8.787c-0.033,0-0.048,0.015-0.048,0.047v0.716c0,0.171-0.057,0.313-0.169,0.421
			C8.458,8.241,8.31,8.296,8.125,8.296S7.792,8.241,7.678,8.135C7.565,8.027,7.508,7.885,7.508,7.713z"/>
		<path fill="#FFFFFF" d="M9.102,8.271V6.95H8.959V6.705h0.715c0.148,0,0.27,0.048,0.362,0.141c0.092,0.094,0.139,0.217,0.139,0.367
			c0,0.153-0.046,0.277-0.139,0.371C9.943,7.68,9.822,7.729,9.674,7.729H9.392v0.542H9.102z M9.392,7.482h0.232
			c0.08,0,0.144-0.025,0.188-0.071c0.043-0.048,0.065-0.115,0.065-0.198c0-0.08-0.022-0.145-0.065-0.19
			C9.768,6.974,9.706,6.95,9.627,6.95H9.392V7.482z"/>
		<path fill="#FFFFFF" d="M10.229,7.476c0-0.225,0.078-0.414,0.231-0.565c0.156-0.156,0.349-0.232,0.578-0.232
			s0.421,0.076,0.577,0.232c0.154,0.152,0.23,0.341,0.23,0.565c0,0.231-0.076,0.425-0.23,0.583
			c-0.155,0.159-0.348,0.237-0.577,0.237s-0.422-0.079-0.578-0.237C10.307,7.901,10.229,7.707,10.229,7.476z M10.527,7.476
			c0,0.156,0.05,0.287,0.147,0.392c0.099,0.105,0.22,0.16,0.362,0.16s0.262-0.055,0.361-0.16c0.099-0.105,0.147-0.236,0.147-0.392
			c0-0.147-0.049-0.272-0.147-0.374c-0.1-0.103-0.219-0.154-0.361-0.154s-0.264,0.051-0.362,0.154
			C10.577,7.203,10.527,7.328,10.527,7.476z"/>
		<path fill="#FFFFFF" d="M11.934,8.271V8.025h0.094c0.031,0,0.048-0.016,0.048-0.048V6.705h0.261l0.594,0.866
			c0.018,0.027,0.037,0.059,0.059,0.094c0.021,0.037,0.039,0.066,0.051,0.09l0.021,0.034h0.004c-0.01-0.086-0.016-0.158-0.016-0.219
			V6.854c0-0.051,0.012-0.089,0.035-0.112c0.023-0.023,0.062-0.037,0.115-0.037h0.283V6.95h-0.096c-0.031,0-0.049,0.015-0.049,0.047
			V8.27H13.08l-0.596-0.866c-0.018-0.025-0.036-0.057-0.059-0.092c-0.021-0.038-0.039-0.067-0.05-0.092l-0.021-0.035H12.35
			c0.01,0.086,0.016,0.159,0.016,0.219V8.12c0,0.053-0.012,0.093-0.035,0.114c-0.023,0.023-0.062,0.037-0.115,0.037H11.934z"/>
	</g>
</g>
</svg>
