<?xml version="1.0" encoding="utf-8"?>
<!-- Generator: Adobe Illustrator 16.0.0, SVG Export Plug-In . SVG Version: 6.00 Build 0)  -->
<!DOCTYPE svg PUBLIC "-//W3C//DTD SVG 1.1//EN" "http://www.w3.org/Graphics/SVG/1.1/DTD/svg11.dtd">
<svg version="1.1" id="Layer_1" xmlns="http://www.w3.org/2000/svg" xmlns:xlink="http://www.w3.org/1999/xlink" x="0px" y="0px"
	 width="36px" height="36px" viewBox="0 0 36 36" enable-background="new 0 0 36 36" xml:space="preserve">
<g>
	<g>
		<g>
			<g>
				<radialGradient id="SVGID_1_" cx="18.2134" cy="17.853" r="16.2322" gradientUnits="userSpaceOnUse">
					<stop  offset="0" style="stop-color:#FFFFFF"/>
					<stop  offset="0.77" style="stop-color:#F1F2F2"/>
					<stop  offset="1" style="stop-color:#FFFFFF"/>
				</radialGradient>
				<path fill="url(#SVGID_1_)" d="M18.25,35.604l9.815-10.25l0.076-0.06c2.814-2.668,4.574-6.44,4.574-10.623
					c0-8.02-6.465-14.529-14.465-14.607V0.061c-0.037,0,0.112-0.003,0.077-0.003c-0.038,0-0.077,0.003-0.113,0.003
					c-0.032,0-0.073-0.003-0.109-0.003c-0.039,0,0.113,0.003,0.078,0.003v0.004c-8.001,0.079-14.47,6.588-14.47,14.607
					c0,4.183,1.762,7.955,4.578,10.623l0.075,0.06l9.817,10.25l0.031,0.044L18.25,35.604z"/>
				<path fill="#E55329" d="M30.134,14.571c0,6.582-5.337,11.917-11.921,11.917c-6.58,0-11.916-5.335-11.916-11.917
					c0-6.584,5.336-11.923,11.916-11.923C24.797,2.648,30.134,7.987,30.134,14.571z"/>
			</g>
		</g>
	</g>
	<g>
		<path fill="#FFFFFF" d="M8.695,14.895c0-0.455,0.151-0.839,0.454-1.142c0.309-0.308,0.688-0.46,1.143-0.46
			c0.114,0,0.233,0.014,0.361,0.038c0.126,0.027,0.256,0.064,0.386,0.114c0.129,0.05,0.237,0.122,0.32,0.221
			c0.087,0.096,0.129,0.207,0.129,0.331v0.354h-0.529v-0.177c0-0.113-0.07-0.188-0.206-0.252c-0.139-0.06-0.287-0.087-0.446-0.087
			c-0.295,0-0.535,0.099-0.725,0.286c-0.191,0.195-0.287,0.455-0.287,0.773c0,0.312,0.102,0.571,0.3,0.791
			c0.197,0.218,0.444,0.329,0.728,0.329c0.112,0,0.219-0.017,0.328-0.042c0.104-0.026,0.191-0.064,0.267-0.103
			c0.073-0.047,0.137-0.085,0.192-0.129c0.06-0.043,0.102-0.07,0.131-0.1l0.037-0.045l0.308,0.419
			c-0.011,0.012-0.03,0.035-0.053,0.057c-0.022,0.024-0.078,0.066-0.161,0.128c-0.082,0.062-0.169,0.119-0.261,0.167
			c-0.09,0.05-0.204,0.096-0.353,0.132c-0.143,0.037-0.291,0.057-0.444,0.057c-0.476,0-0.866-0.156-1.167-0.475
			C8.844,15.767,8.695,15.374,8.695,14.895z"/>
		<path fill="#FFFFFF" d="M11.709,14.9c0-0.453,0.156-0.833,0.469-1.14c0.312-0.314,0.701-0.468,1.162-0.468
			c0.465,0,0.85,0.154,1.162,0.468c0.312,0.306,0.471,0.687,0.471,1.14c0,0.466-0.159,0.857-0.471,1.176
			c-0.312,0.32-0.697,0.479-1.162,0.479c-0.461,0-0.85-0.159-1.162-0.479C11.865,15.758,11.709,15.366,11.709,14.9z M12.313,14.9
			c0,0.315,0.099,0.579,0.3,0.79c0.197,0.213,0.44,0.323,0.727,0.323c0.287,0,0.532-0.11,0.73-0.323
			c0.2-0.211,0.297-0.475,0.297-0.79c0-0.297-0.097-0.549-0.297-0.754c-0.198-0.208-0.443-0.311-0.73-0.311
			c-0.287,0-0.529,0.103-0.727,0.311C12.412,14.351,12.313,14.603,12.313,14.9z"/>
		<path fill="#FFFFFF" d="M15.396,15.38v-1.443c0-0.065-0.03-0.096-0.095-0.096h-0.193v-0.494h0.569
			c0.106,0,0.183,0.026,0.232,0.074c0.048,0.046,0.07,0.123,0.07,0.226v1.709c0,0.206,0.059,0.368,0.178,0.482
			c0.117,0.114,0.28,0.174,0.48,0.174c0.201,0,0.361-0.06,0.481-0.174c0.117-0.114,0.175-0.276,0.175-0.486v-1.706
			c0-0.104,0.026-0.18,0.073-0.226c0.048-0.047,0.125-0.074,0.229-0.074h0.571v0.494h-0.192c-0.066,0-0.096,0.031-0.096,0.096v1.443
			c0,0.345-0.115,0.632-0.341,0.849c-0.225,0.214-0.525,0.326-0.897,0.326c-0.372,0-0.671-0.112-0.902-0.326
			C15.511,16.012,15.396,15.725,15.396,15.38z"/>
		<path fill="#FFFFFF" d="M18.609,16.503v-2.662h-0.288v-0.494h1.441c0.299,0,0.543,0.097,0.729,0.283
			c0.187,0.189,0.279,0.437,0.279,0.74c0,0.309-0.093,0.56-0.279,0.749c-0.186,0.194-0.43,0.291-0.729,0.291h-0.568v1.093H18.609z
			 M19.193,14.913h0.467c0.16,0,0.289-0.05,0.38-0.143c0.087-0.098,0.134-0.232,0.134-0.399c0-0.16-0.047-0.292-0.131-0.383
			c-0.092-0.099-0.217-0.146-0.375-0.146h-0.475V14.913z"/>
		<path fill="#FFFFFF" d="M20.881,14.9c0-0.453,0.155-0.833,0.465-1.14c0.314-0.314,0.703-0.468,1.164-0.468
			c0.463,0,0.851,0.154,1.163,0.468c0.313,0.306,0.466,0.687,0.466,1.14c0,0.466-0.152,0.857-0.466,1.176
			c-0.312,0.32-0.7,0.479-1.163,0.479c-0.461,0-0.85-0.159-1.164-0.479C21.036,15.758,20.881,15.366,20.881,14.9z M21.482,14.9
			c0,0.315,0.1,0.579,0.299,0.79c0.197,0.213,0.441,0.323,0.729,0.323s0.529-0.11,0.73-0.323c0.197-0.211,0.297-0.475,0.297-0.79
			c0-0.297-0.1-0.549-0.297-0.754c-0.201-0.208-0.443-0.311-0.73-0.311s-0.531,0.103-0.729,0.311
			C21.582,14.351,21.482,14.603,21.482,14.9z"/>
		<path fill="#FFFFFF" d="M24.314,16.503v-0.495h0.19c0.065,0,0.097-0.032,0.097-0.097v-2.563h0.526l1.194,1.746
			c0.037,0.054,0.076,0.119,0.121,0.19c0.043,0.074,0.077,0.133,0.1,0.183l0.041,0.069h0.01c-0.02-0.174-0.031-0.319-0.031-0.441
			v-1.446c0-0.104,0.023-0.18,0.071-0.226c0.048-0.047,0.126-0.074,0.231-0.074h0.569v0.494H27.24c-0.062,0-0.096,0.031-0.096,0.096
			v2.566h-0.521l-1.2-1.746c-0.035-0.05-0.074-0.114-0.118-0.186c-0.045-0.077-0.079-0.136-0.101-0.185l-0.039-0.07h-0.01
			c0.018,0.174,0.029,0.321,0.029,0.441v1.442c0,0.106-0.023,0.187-0.07,0.23c-0.047,0.046-0.125,0.074-0.232,0.074H24.314z"/>
	</g>
</g>
</svg>
