<?xml version="1.0" encoding="utf-8"?>
<!-- Generator: Adobe Illustrator 16.0.0, SVG Export Plug-In . SVG Version: 6.00 Build 0)  -->
<!DOCTYPE svg PUBLIC "-//W3C//DTD SVG 1.1//EN" "http://www.w3.org/Graphics/SVG/1.1/DTD/svg11.dtd">
<svg version="1.1" id="Layer_1" xmlns="http://www.w3.org/2000/svg" xmlns:xlink="http://www.w3.org/1999/xlink" x="0px" y="0px"
	 width="36px" height="36px" viewBox="0 0 36 36" enable-background="new 0 0 36 36" xml:space="preserve">
<g>
	<g>
		<g>
			<g>
				<radialGradient id="SVGID_1_" cx="554.7617" cy="135.6245" r="299.4365" gradientUnits="userSpaceOnUse">
					<stop  offset="0" style="stop-color:#FFFFFF"/>
					<stop  offset="0.77" style="stop-color:#F1F2F2"/>
					<stop  offset="1" style="stop-color:#FFFFFF"/>
				</radialGradient>
				<path fill="url(#SVGID_1_)" d="M555.416,463.062l181.038-189.059l1.417-1.126c51.951-49.203,84.402-118.797,84.402-195.952
					c0-147.924-119.273-267.989-266.857-269.436v-0.082c-0.669,0,2.087-0.055,1.418-0.055c-0.706,0-1.418,0.055-2.087,0.055
					c-0.602,0-1.34-0.055-2.009-0.055c-0.732,0,2.077,0.055,1.434,0.055v0.082C406.566-191.063,287.25-70.998,287.25,76.926
					c0,77.155,32.49,146.749,84.45,195.952l1.369,1.126l181.102,189.059l0.575,0.834L555.416,463.062z"/>
				<path fill="#E55329" d="M774.652,75.078c0,121.393-98.444,219.823-219.905,219.823c-121.389,0-219.837-98.43-219.837-219.823
					c0-121.448,98.448-219.95,219.837-219.95C676.208-144.872,774.652-46.37,774.652,75.078z"/>
			</g>
		</g>
	</g>
	<g>
		<path fill="#FFFFFF" d="M379.174,81.058c0-8.402,2.762-15.497,8.37-21.062c5.687-5.677,12.692-8.494,21.089-8.494
			c2.081,0,4.295,0.255,6.642,0.695c2.334,0.506,4.743,1.176,7.137,2.095c2.371,0.936,4.38,2.258,5.907,4.08
			c1.582,1.76,2.356,3.805,2.356,6.125v6.52h-9.75v-3.273c0-2.061-1.297-3.471-3.779-4.622c-2.578-1.107-5.298-1.624-8.244-1.624
			c-5.43,0-9.846,1.832-13.367,5.276c-3.505,3.59-5.291,8.375-5.291,14.284c0,5.745,1.871,10.523,5.534,14.568
			c3.646,4.019,8.175,6.056,13.431,6.056c2.045,0,4.058-0.3,6.028-0.774c1.945-0.498,3.553-1.176,4.924-1.906
			c1.349-0.843,2.535-1.555,3.547-2.364c1.112-0.814,1.908-1.312,2.408-1.863l0.702-0.833l5.671,7.74
			c-0.206,0.222-0.548,0.644-0.98,1.065c-0.427,0.438-1.434,1.22-2.973,2.361c-1.513,1.133-3.125,2.182-4.828,3.068
			c-1.649,0.943-3.742,1.776-6.494,2.438c-2.646,0.68-5.365,1.075-8.211,1.075c-8.766,0-15.977-2.912-21.527-8.789
			C381.91,97.137,379.174,89.89,379.174,81.058z"/>
		<path fill="#FFFFFF" d="M434.772,81.153c0-8.359,2.872-15.394,8.644-21.046c5.755-5.771,12.924-8.604,21.42-8.604
			c8.592,0,15.687,2.833,21.442,8.604c5.761,5.653,8.676,12.687,8.676,21.046c0,8.597-2.915,15.831-8.676,21.679
			c-5.756,5.912-12.851,8.858-21.442,8.858c-8.496,0-15.665-2.946-21.42-8.858C437.644,96.984,434.772,89.75,434.772,81.153z
			 M445.923,81.153c0,5.813,1.813,10.668,5.515,14.584c3.658,3.908,8.117,5.945,13.397,5.945c5.309,0,9.83-2.037,13.473-5.945
			c3.685-3.916,5.498-8.771,5.498-14.584c0-5.471-1.813-10.136-5.498-13.907c-3.643-3.832-8.164-5.748-13.473-5.748
			c-5.28,0-9.739,1.916-13.397,5.748C447.737,71.017,445.923,75.682,445.923,81.153z"/>
		<path fill="#FFFFFF" d="M502.771,90V63.388c0-1.21-0.549-1.785-1.756-1.785h-3.553v-9.116h10.494c1.966,0,3.385,0.508,4.281,1.368
			c0.911,0.867,1.312,2.3,1.312,4.19v31.541c0,3.771,1.075,6.797,3.289,8.874c2.13,2.132,5.155,3.223,8.834,3.223
			c3.716,0,6.662-1.091,8.882-3.223c2.172-2.077,3.246-5.102,3.246-8.958V58.045c0-1.89,0.464-3.323,1.339-4.19
			c0.875-0.86,2.266-1.368,4.211-1.368h10.531v9.116h-3.552c-1.207,0-1.761,0.575-1.761,1.785V90c0,6.383-2.13,11.63-6.288,15.649
			c-4.175,3.988-9.672,6.041-16.54,6.041c-6.857,0-12.396-2.053-16.65-6.041C504.9,101.63,502.771,96.383,502.771,90z"/>
		<path fill="#FFFFFF" d="M562.046,110.709V61.603h-5.334v-9.116h26.628c5.508,0,9.999,1.805,13.419,5.231
			c3.438,3.524,5.156,8.067,5.156,13.668c0,5.687-1.719,10.326-5.156,13.804c-3.42,3.582-7.911,5.369-13.419,5.369h-10.536v20.151
			H562.046z M572.804,81.385h8.612c2.973,0,5.345-0.912,7.021-2.638c1.604-1.821,2.482-4.277,2.482-7.36
			c0-2.973-0.879-5.387-2.439-7.087c-1.687-1.805-3.985-2.696-6.9-2.696h-8.775V81.385z"/>
		<path fill="#FFFFFF" d="M603.95,81.153c0-8.359,2.894-15.394,8.612-21.046c5.793-5.771,12.939-8.604,21.442-8.604
			c8.527,0,15.67,2.833,21.457,8.604c5.772,5.653,8.607,12.687,8.607,21.046c0,8.597-2.835,15.831-8.607,21.679
			c-5.787,5.912-12.93,8.858-21.457,8.858c-8.503,0-15.649-2.946-21.442-8.858C606.843,96.984,603.95,89.75,603.95,81.153z
			 M615.045,81.153c0,5.813,1.865,10.668,5.507,14.584c3.658,3.908,8.144,5.945,13.452,5.945c5.292,0,9.777-2.037,13.467-5.945
			c3.642-3.916,5.481-8.771,5.481-14.584c0-5.471-1.84-10.136-5.481-13.907c-3.689-3.832-8.175-5.748-13.467-5.748
			c-5.309,0-9.794,1.916-13.452,5.748C616.911,71.017,615.045,75.682,615.045,81.153z"/>
		<path fill="#FFFFFF" d="M667.3,110.709v-9.148h3.505c1.202,0,1.787-0.566,1.787-1.787V52.487h9.703l22.043,32.221
			c0.669,1.006,1.396,2.201,2.214,3.513c0.801,1.365,1.438,2.457,1.854,3.36l0.76,1.271h0.189c-0.395-3.205-0.585-5.901-0.585-8.144
			V58.045c0-1.89,0.427-3.323,1.307-4.19c0.892-0.86,2.336-1.368,4.274-1.368h10.489v9.116h-3.562c-1.154,0-1.771,0.575-1.771,1.785
			v47.322h-9.604l-22.127-32.194c-0.665-0.944-1.392-2.122-2.199-3.437c-0.832-1.434-1.46-2.517-1.876-3.426l-0.717-1.288h-0.189
			c0.369,3.204,0.575,5.918,0.575,8.151v26.594c0,1.958-0.465,3.418-1.298,4.235c-0.869,0.859-2.318,1.366-4.296,1.366H667.3z"/>
	</g>
</g>
<g>
	<g>
		<g>
			<g>
				<radialGradient id="SVGID_2_" cx="17.2134" cy="17.853" r="16.2327" gradientUnits="userSpaceOnUse">
					<stop  offset="0" style="stop-color:#FFFFFF"/>
					<stop  offset="0.77" style="stop-color:#F1F2F2"/>
					<stop  offset="1" style="stop-color:#FFFFFF"/>
				</radialGradient>
				<path fill="url(#SVGID_2_)" d="M17.25,35.604l9.814-10.25l0.077-0.06c2.815-2.667,4.575-6.44,4.575-10.623
					c0-8.02-6.466-14.529-14.466-14.607V0.061c-0.037,0,0.112-0.003,0.077-0.003c-0.038,0-0.077,0.003-0.113,0.003
					c-0.032,0-0.073-0.003-0.109-0.003c-0.039,0,0.113,0.003,0.078,0.003v0.004C9.181,0.143,2.712,6.652,2.712,14.672
					c0,4.183,1.762,7.956,4.578,10.623l0.075,0.06l9.817,10.25l0.031,0.044L17.25,35.604z"/>
				<path fill="#E55329" d="M29.134,14.571c0,6.581-5.337,11.917-11.921,11.917c-6.58,0-11.916-5.335-11.916-11.917
					c0-6.584,5.336-11.923,11.916-11.923C23.797,2.648,29.134,7.987,29.134,14.571z"/>
			</g>
		</g>
	</g>
	<g>
		<path fill="#FFFFFF" d="M7.695,14.895c0-0.455,0.151-0.839,0.454-1.142c0.309-0.308,0.688-0.46,1.143-0.46
			c0.114,0,0.233,0.014,0.361,0.038c0.126,0.027,0.256,0.064,0.386,0.114c0.129,0.05,0.237,0.122,0.32,0.221
			c0.087,0.096,0.129,0.207,0.129,0.331v0.354H9.959v-0.177c0-0.113-0.07-0.188-0.206-0.252c-0.139-0.06-0.287-0.087-0.446-0.087
			c-0.295,0-0.535,0.099-0.725,0.286c-0.191,0.195-0.287,0.455-0.287,0.773c0,0.312,0.102,0.571,0.3,0.791
			c0.197,0.218,0.444,0.329,0.728,0.329c0.112,0,0.219-0.017,0.328-0.042c0.104-0.026,0.191-0.064,0.267-0.103
			c0.073-0.047,0.137-0.085,0.192-0.129c0.06-0.043,0.102-0.07,0.131-0.1l0.037-0.045l0.308,0.419
			c-0.011,0.012-0.03,0.035-0.053,0.057c-0.022,0.024-0.078,0.066-0.161,0.128c-0.082,0.062-0.169,0.119-0.261,0.167
			c-0.09,0.05-0.204,0.096-0.353,0.132c-0.143,0.037-0.291,0.057-0.444,0.057c-0.476,0-0.866-0.156-1.167-0.475
			C7.844,15.767,7.695,15.374,7.695,14.895z"/>
		<path fill="#FFFFFF" d="M10.709,14.9c0-0.453,0.156-0.833,0.469-1.14c0.312-0.314,0.701-0.468,1.162-0.468
			c0.465,0,0.85,0.154,1.162,0.468c0.312,0.306,0.471,0.687,0.471,1.14c0,0.466-0.159,0.857-0.471,1.176
			c-0.312,0.32-0.697,0.479-1.162,0.479c-0.461,0-0.85-0.159-1.162-0.479C10.865,15.758,10.709,15.366,10.709,14.9z M11.313,14.9
			c0,0.315,0.099,0.579,0.3,0.79c0.197,0.213,0.44,0.323,0.727,0.323c0.287,0,0.532-0.11,0.73-0.323
			c0.2-0.211,0.297-0.475,0.297-0.79c0-0.297-0.097-0.549-0.297-0.754c-0.198-0.208-0.443-0.311-0.73-0.311
			c-0.287,0-0.529,0.103-0.727,0.311C11.412,14.351,11.313,14.603,11.313,14.9z"/>
		<path fill="#FFFFFF" d="M14.396,15.38v-1.443c0-0.065-0.03-0.096-0.095-0.096h-0.193v-0.494h0.569
			c0.106,0,0.183,0.026,0.232,0.074c0.048,0.046,0.07,0.123,0.07,0.226v1.709c0,0.206,0.059,0.368,0.178,0.482
			c0.117,0.114,0.28,0.174,0.48,0.174c0.201,0,0.361-0.06,0.481-0.174c0.117-0.114,0.175-0.276,0.175-0.486v-1.706
			c0-0.104,0.026-0.18,0.073-0.226c0.048-0.047,0.125-0.074,0.229-0.074h0.571v0.494h-0.192c-0.066,0-0.096,0.031-0.096,0.096v1.443
			c0,0.345-0.115,0.632-0.341,0.849c-0.225,0.214-0.525,0.326-0.897,0.326c-0.372,0-0.671-0.112-0.902-0.326
			C14.511,16.012,14.396,15.725,14.396,15.38z"/>
		<path fill="#FFFFFF" d="M17.609,16.503v-2.662h-0.288v-0.494h1.44c0.3,0,0.543,0.097,0.729,0.283
			c0.186,0.189,0.279,0.437,0.279,0.74c0,0.309-0.093,0.56-0.279,0.749c-0.186,0.194-0.43,0.291-0.729,0.291h-0.568v1.093H17.609z
			 M18.193,14.913h0.467c0.161,0,0.29-0.05,0.38-0.143c0.086-0.098,0.134-0.232,0.134-0.399c0-0.16-0.047-0.292-0.131-0.383
			c-0.092-0.099-0.217-0.146-0.375-0.146h-0.475V14.913z"/>
		<path fill="#FFFFFF" d="M19.88,14.9c0-0.453,0.156-0.833,0.466-1.14c0.314-0.314,0.703-0.468,1.164-0.468
			c0.462,0,0.85,0.154,1.163,0.468c0.313,0.306,0.466,0.687,0.466,1.14c0,0.466-0.153,0.857-0.466,1.176
			c-0.312,0.32-0.701,0.479-1.163,0.479c-0.461,0-0.85-0.159-1.164-0.479C20.036,15.758,19.88,15.366,19.88,14.9z M20.482,14.9
			c0,0.315,0.101,0.579,0.299,0.79c0.198,0.213,0.441,0.323,0.729,0.323c0.287,0,0.529-0.11,0.729-0.323
			c0.197-0.211,0.297-0.475,0.297-0.79c0-0.297-0.1-0.549-0.297-0.754c-0.2-0.208-0.443-0.311-0.729-0.311
			c-0.288,0-0.531,0.103-0.729,0.311C20.583,14.351,20.482,14.603,20.482,14.9z"/>
		<path fill="#FFFFFF" d="M23.314,16.503v-0.495h0.19c0.065,0,0.097-0.032,0.097-0.097v-2.563h0.526l1.195,1.746
			c0.037,0.054,0.076,0.119,0.12,0.19c0.043,0.074,0.078,0.133,0.1,0.183l0.042,0.069h0.01c-0.021-0.174-0.031-0.319-0.031-0.441
			v-1.446c0-0.104,0.023-0.18,0.071-0.226c0.048-0.047,0.126-0.074,0.231-0.074h0.57v0.494h-0.194c-0.062,0-0.096,0.031-0.096,0.096
			v2.566h-0.521l-1.2-1.746c-0.035-0.05-0.075-0.114-0.118-0.186c-0.045-0.077-0.079-0.136-0.101-0.185l-0.039-0.07h-0.009
			c0.018,0.174,0.03,0.321,0.03,0.441v1.442c0,0.106-0.024,0.187-0.071,0.23c-0.046,0.046-0.125,0.074-0.232,0.074H23.314z"/>
	</g>
</g>
</svg>
